<svg width="2449" height="407" viewBox="0 0 2449 407" fill="none" xmlns="http://www.w3.org/2000/svg">
<path d="M1331.33 23.6045C1337.18 21.2947 1343.7 20.2028 1350.16 21.4971C1356.01 22.6701 1362.46 24.1967 1369.5 26.0723C1380.56 28.7174 1391.5 31.4824 1402.32 34.3682C1413.12 37.2488 1422.97 39.89 1431.85 42.291H1431.85C1437.29 43.7301 1441.54 47.8946 1444.16 52.6865C1446.79 57.4909 1448.01 63.334 1446.97 68.6348C1446.85 69.2584 1446.74 69.8916 1446.63 70.5342L1446.62 70.541L1446.62 70.5488C1445.22 78.5247 1444.51 86.8695 1444.51 95.5869C1444.51 108.77 1446.16 121.962 1449.46 135.167C1449.84 136.682 1450.25 138.164 1450.67 139.611C1455.96 157.679 1455.75 178.809 1449.99 196.747C1449.68 197.733 1449.37 198.737 1449.07 199.76C1446.17 209.542 1445.08 223.017 1445.08 236.609C1445.08 247.788 1445.14 259.452 1448.3 268.477C1448.59 269.305 1448.9 270.113 1449.22 270.899C1451.09 275.463 1450.51 281.474 1448.62 286.337C1446.77 291.102 1443.12 296.04 1437.67 296.907L1437.67 296.908C1428.86 298.336 1419.93 300.122 1410.88 302.267L1410.88 302.266C1402.05 304.414 1393.46 306.683 1385.1 309.068C1384.26 309.333 1383.43 309.6 1382.62 309.867C1369.75 314.074 1355.72 316.885 1341.91 313.849C1339.32 313.28 1336.64 312.658 1333.88 311.981C1323.06 309.336 1312.24 306.571 1301.42 303.686L1301.41 303.684L1301.4 303.682C1290.84 300.802 1281.12 298.163 1272.25 295.764L1272.21 295.754L1272.17 295.743C1271.26 295.473 1270.38 295.214 1269.53 294.967C1265.1 293.686 1261.91 289.644 1260.02 285.623C1258.11 281.532 1257.13 276.614 1257.83 272.558L1257.84 272.519L1257.85 272.479C1259.21 265.654 1258.95 256.913 1258.95 247.587C1258.95 239.33 1258.36 230.7 1257.17 221.698L1257.17 221.656L1257.17 221.613C1256.22 212.37 1254.8 203.993 1252.92 196.475L1252.89 196.344L1252.87 196.21C1248.62 169.04 1252.62 144.278 1255.22 135.091L1255.23 135.058L1255.24 135.025C1257.09 129.022 1258.02 123.379 1258.98 116.686L1258.99 116.634L1259 116.582C1260.15 110.107 1260.39 104.581 1260.39 98.1875C1260.39 87.2632 1259.71 78.2117 1256.51 68.8369C1256.14 67.767 1255.75 66.7333 1255.34 65.7363C1253.51 61.3603 1254.1 55.5152 1255.9 50.8076C1257.67 46.2062 1261.16 41.3043 1266.42 40.4277L1266.43 40.4258C1275.23 38.9984 1284.03 37.2141 1292.84 35.0723C1301.66 32.927 1310.12 30.6635 1318.21 28.2832C1322.92 26.76 1327.29 25.2003 1331.33 23.6045ZM1358.76 68.5332C1350.28 66.0588 1341.14 66.7949 1333.04 70.459C1328.86 72.3519 1325.49 74.0793 1322.18 75.625C1315.97 78.5297 1311.32 84.1839 1310.28 90.7031C1307.08 110.878 1300.91 144.132 1300.71 167.135C1300.5 192.209 1306.34 230.307 1309.29 247.818C1310.12 252.786 1313.2 257.08 1317.63 259.481C1318.87 260.153 1320.08 260.799 1321.24 261.42C1324.76 263.295 1328.27 265.054 1331.78 266.695C1335.5 268.087 1339.47 269.369 1343.67 270.537C1352.29 272.931 1361.68 271.574 1370.43 268.16C1371.65 267.682 1372.82 267.228 1373.95 266.793C1374.69 266.506 1375.44 266.219 1376.19 265.931C1376.94 265.642 1377.7 265.351 1378.47 265.054C1387.36 261.615 1393.7 253.8 1396.51 244.335C1397.01 242.639 1397.57 240.786 1398.2 238.729C1401.2 228.965 1403.19 221.317 1403.19 165.109C1403.19 130.823 1398.3 105.922 1394.95 92.9033C1393.41 86.8845 1389.22 81.9086 1383.58 78.8711C1382.84 78.4763 1382.12 78.09 1381.42 77.7139C1377.93 75.856 1374.33 74.2301 1370.62 72.8359L1370.51 72.7949L1370.4 72.7461C1366.97 71.1445 1363.17 69.7588 1358.99 68.5977L1358.96 68.5918L1358.94 68.585C1358.88 68.5675 1358.82 68.5506 1358.76 68.5332Z" fill="black" stroke="black" stroke-width="6"/>
<path d="M1592.51 28.5952C1594.81 30.4226 1599.74 32.9798 1607.72 36.2487C1615.55 39.4574 1624.72 42.5476 1635.24 45.5141C1645.71 48.4688 1660.22 51.535 1668.5 52.9505C1672.93 53.707 1676.41 54.9532 1679.1 57.481C1681.75 59.9764 1683.26 63.3828 1684.52 67.5896C1685.93 72.2916 1685.6 77.9262 1685.03 82.1137C1684.74 84.26 1684.37 86.135 1684.07 87.4756C1683.92 88.1473 1683.79 88.6885 1683.7 89.0663C1683.65 89.255 1683.61 89.4035 1683.58 89.5072C1683.58 89.5229 1683.57 89.5377 1683.57 89.5513C1682.95 92.6663 1682.65 96.0293 1682.7 99.6488C1682.75 103.403 1682.91 107.4 1683.2 111.639C1683.72 115.894 1684.25 120.15 1684.78 124.405C1685.53 128.618 1686.4 132.585 1687.38 136.307C1689.1 142.826 1686.03 150.469 1679.88 153.647C1678.9 154.156 1677.85 154.71 1676.73 155.309L1676.71 155.32L1676.69 155.331C1671.88 157.809 1666.2 160.999 1659.63 164.906C1664.33 169.028 1669.34 173.31 1674.69 177.75C1677.38 179.984 1680.08 182.092 1682.8 184.075C1690.22 189.48 1693.86 199.278 1693.03 208.111C1692.64 214.504 1692.49 221.871 1692.59 230.216C1692.67 236.376 1692.98 242.657 1693.54 249.057L1693.64 250.202C1694.2 255.913 1695.06 261.512 1696.22 267.002L1696.46 268.053C1697.65 273.255 1699.03 278.02 1700.61 282.353C1702.47 286.819 1704.7 290.236 1707.25 292.719L1709.78 295.193L1706.93 297.286C1697.28 304.36 1689.77 312.761 1684.36 322.489C1679.05 332.731 1674.81 342.819 1671.63 352.754L1668.49 362.567L1665.87 352.603C1664.66 348.008 1662.86 343.029 1660.45 337.659L1660.42 337.607L1660.4 337.556C1658.25 332.261 1655.53 327.075 1652.21 321.997C1648.92 317.202 1645.06 312.751 1640.61 308.643L1640.55 308.588L1640.5 308.53C1636.35 304.258 1631.79 300.93 1626.81 298.517L1623.06 296.702L1625.97 293.723C1627.7 291.951 1629 289.644 1629.8 286.692L1629.82 286.63L1629.84 286.567C1630.89 283.288 1631.64 278.634 1632.04 272.498L1632.04 272.447L1632.05 272.396C1632.68 266.025 1633.05 257.953 1633.17 248.159C1633.28 238.69 1633.48 226.896 1633.76 212.778C1633.22 212.425 1632.6 212.011 1631.92 211.548C1630.26 210.409 1628.03 208.831 1625.23 206.82L1625.18 206.781C1620.3 203.104 1615.02 199.032 1609.33 194.569C1601.6 199.334 1593.97 203.996 1586.44 208.552L1586.44 208.551C1579.19 213.069 1572.44 217.276 1566.2 221.168C1567.37 238.432 1568.85 254.79 1570.66 270.245L1571.06 273.177C1573.1 287.759 1575.64 301.159 1578.69 313.379L1580.24 319.603L1574.47 316.806C1568.33 313.831 1562.89 311.835 1558.12 310.762L1558.09 310.755C1553.49 309.666 1549.05 309.155 1544.76 309.208C1540.86 309.257 1536.96 309.649 1533.06 310.386C1529.27 311.145 1525.24 312.027 1520.97 313.032L1520.91 313.046L1520.84 313.059C1516.75 313.833 1512.42 314.609 1507.86 315.388C1503.42 316.145 1498.58 316.572 1493.34 316.68L1492.29 316.698L1488.33 316.747C1486.72 316.767 1485.2 316.651 1483.77 316.384L1476.3 314.985L1482.71 310.905C1487.42 307.913 1491.81 304 1495.88 299.13C1499.99 293.981 1503.51 288.372 1506.46 282.299C1509.4 276.23 1511.64 269.816 1513.19 263.051L1513.2 263.004L1513.21 262.957C1514.98 256.221 1515.82 249.644 1515.74 243.218L1513.37 109.678L1513.37 109.661C1513.3 103.939 1512.93 97.7256 1512.28 91.0167C1502.76 89.3931 1495.02 85.6437 1489.31 79.5876L1489.27 79.5423L1489.23 79.4949C1483.2 72.5487 1480.38 62.1421 1480.22 48.8656L1480.17 45.1549L1483.81 45.8883C1493.86 47.9126 1502.07 49.3542 1508.47 50.2227C1514.82 50.847 1521.3 51.1191 1527.89 51.0377C1531.64 50.9913 1535.76 50.8219 1540.25 50.5315C1544.58 50.0157 1549.17 49.0402 1554.02 47.5896L1554.06 47.5794C1559.1 46.1373 1564.53 43.9879 1570.34 41.1092C1576.09 38.0251 1582.23 33.8668 1588.76 28.6044L1590.63 27.0958L1592.51 28.5952ZM1572.34 82.2713C1567.31 81.3317 1562.81 84.9086 1562.76 89.6167C1562.74 91.7243 1562.74 93.8822 1562.77 96.0898L1563.49 154.522C1563.56 160.701 1570.38 164.548 1575.8 161.38C1578.11 160.026 1580.45 158.672 1582.8 157.318C1590.9 152.418 1598.41 148 1605.34 144.067C1612.19 139.936 1617.87 136.526 1622.38 133.84C1626.26 131.312 1628.26 127.113 1628.01 122.325L1627.46 111.951C1626.77 98.992 1616.97 88.3553 1604.14 86.7578C1600.23 86.271 1596.42 85.8098 1592.73 85.3742C1585.89 84.5679 1579.09 83.5334 1572.34 82.2713Z" fill="black" stroke="black" stroke-width="6"/>
<path fill-rule="evenodd" clip-rule="evenodd" d="M1511.13 241.195C1514.01 252.153 1515.37 271.75 1515.64 283.396L1513.3 151.533C1513.43 162.572 1512.37 173.746 1510.11 185.055C1509.41 199.367 1499.97 213.354 1491.57 226.386C1499.28 227.561 1508.1 229.471 1511.13 241.195Z" fill="black"/>
<path d="M2319.46 30.6685C2321.79 32.4383 2326.79 34.8719 2334.85 37.9412C2342.76 40.954 2352 43.815 2362.59 46.5188C2373.13 49.2119 2387.72 51.916 2396.03 53.1249C2400.47 53.771 2403.99 54.9301 2406.74 57.3902C2409.45 59.8188 2411.04 63.1866 2412.41 67.3608C2413.93 72.0262 2413.74 77.6673 2413.28 81.8677C2413.04 84.0205 2412.72 85.9042 2412.45 87.2518C2412.32 87.927 2412.2 88.4713 2412.12 88.8514C2412.07 89.0412 2412.04 89.1906 2412.01 89.295C2412.01 89.3107 2412.01 89.3257 2412 89.3394C2411.46 92.4688 2411.25 95.8381 2411.38 99.4554C2411.52 103.208 2411.79 107.199 2412.18 111.429C2412.81 115.67 2413.44 119.911 2414.08 124.153C2414.94 128.346 2415.91 132.289 2416.98 135.985C2418.85 142.46 2415.98 150.177 2409.91 153.507C2408.94 154.04 2407.9 154.621 2406.8 155.247L2406.78 155.258L2406.76 155.27C2402.02 157.867 2396.42 161.197 2389.95 165.267C2394.74 169.27 2399.87 173.426 2405.32 177.732C2408.06 179.898 2410.82 181.939 2413.59 183.853C2421.14 189.071 2425.02 198.776 2424.41 207.626C2424.18 214.028 2424.21 221.396 2424.52 229.736C2424.75 235.892 2425.22 242.163 2425.94 248.547L2426.07 249.689C2426.77 255.385 2427.77 260.961 2429.07 266.42L2429.33 267.465C2430.65 272.636 2432.15 277.364 2433.83 281.657C2435.8 286.075 2438.12 289.435 2440.73 291.854L2443.32 294.264L2440.52 296.428C2431.05 303.74 2423.76 312.326 2418.59 322.185C2413.53 332.556 2409.54 342.747 2406.62 352.758L2403.73 362.646L2400.86 352.751C2399.53 348.187 2397.61 343.254 2395.06 337.945L2395.04 337.894L2395.01 337.843C2392.74 332.603 2389.88 327.487 2386.44 322.494C2383.03 317.782 2379.06 313.428 2374.51 309.432L2374.45 309.378L2374.39 309.322C2370.14 305.155 2365.5 301.941 2360.46 299.653L2356.67 297.932L2359.5 294.881C2361.19 293.067 2362.43 290.728 2363.16 287.758L2363.17 287.695L2363.19 287.631C2364.16 284.327 2364.8 279.656 2365.04 273.512L2365.04 273.461L2365.05 273.41C2365.52 267.025 2365.69 258.946 2365.57 249.152C2365.44 239.684 2365.35 227.888 2365.27 213.767C2364.72 213.429 2364.09 213.03 2363.41 212.584C2361.72 211.487 2359.45 209.964 2356.6 208.024L2356.55 207.986C2351.58 204.432 2346.2 200.492 2340.4 196.172C2332.79 201.128 2325.28 205.979 2317.86 210.721L2317.86 210.72C2310.72 215.417 2304.09 219.79 2297.95 223.837C2299.54 241.066 2301.43 257.382 2303.62 272.787L2304.09 275.708C2306.5 290.236 2309.37 303.568 2312.73 315.709L2314.43 321.892L2308.59 319.239C2302.38 316.418 2296.89 314.558 2292.1 313.604L2292.07 313.598C2287.44 312.624 2282.99 312.224 2278.7 312.383C2274.8 312.529 2270.91 313.018 2267.03 313.852C2263.27 314.705 2259.26 315.687 2255.02 316.798L2254.95 316.814L2254.89 316.828C2250.82 317.703 2246.51 318.587 2241.97 319.48C2237.55 320.347 2232.72 320.894 2227.48 321.133L2226.43 321.177L2222.47 321.324C2220.87 321.384 2219.35 321.306 2217.91 321.075L2210.41 319.862L2216.72 315.623C2221.34 312.516 2225.64 308.494 2229.59 303.524C2233.57 298.275 2236.95 292.58 2239.74 286.435C2242.53 280.296 2244.62 273.827 2245.99 267.026L2246 266.979L2246.01 266.931C2247.61 260.153 2248.29 253.557 2248.05 247.136L2242.36 113.696L2242.36 113.679C2242.14 107.961 2241.62 101.758 2240.8 95.0679C2231.24 93.6817 2223.41 90.1261 2217.55 84.214L2217.51 84.1697L2217.47 84.1234C2211.27 77.3293 2208.19 66.9962 2207.7 53.7278L2207.56 50.0194L2211.22 50.6621C2221.31 52.4355 2229.56 53.6723 2235.98 54.3813C2242.35 54.8472 2248.82 54.9581 2255.41 54.7127C2259.16 54.5728 2263.28 54.3009 2267.75 53.899C2272.07 53.2755 2276.64 52.186 2281.45 50.6152L2281.48 50.6041C2286.49 49.0369 2291.86 46.7531 2297.61 43.7305C2303.28 40.5043 2309.31 36.1945 2315.71 30.7712L2317.54 29.2164L2319.46 30.6685ZM2300.62 84.8303C2295.57 84.0161 2291.16 87.7038 2291.23 92.4118C2291.26 94.5193 2291.32 96.6765 2291.4 98.8827L2293.57 157.279C2293.81 163.454 2300.72 167.13 2306.05 163.828C2308.33 162.417 2310.63 161.005 2312.95 159.593C2320.93 154.493 2328.33 149.89 2335.15 145.785C2341.9 141.485 2347.5 137.935 2351.94 135.137C2355.75 132.514 2357.65 128.266 2357.27 123.486L2356.47 113.129C2355.46 100.191 2345.4 89.8013 2332.52 88.5238C2328.6 88.1345 2324.79 87.7681 2321.08 87.4246C2314.23 86.7888 2307.41 85.9239 2300.62 84.8303Z" fill="black" stroke="black" stroke-width="6"/>
<path fill-rule="evenodd" clip-rule="evenodd" d="M2243.39 245.22C2246.55 256.103 2248.39 275.66 2248.95 287.296L2243.33 155.532C2243.74 166.564 2242.96 177.761 2240.98 189.122C2240.63 203.448 2231.55 217.666 2223.47 230.902C2231.21 231.885 2240.07 233.575 2243.39 245.22Z" fill="black"/>
<path d="M1843.31 44.7778C1863.42 42.5728 1883.78 46.2248 1902.39 53.7378C1902.77 53.8907 1903.15 54.0434 1903.53 54.1966C1905.77 55.09 1908 55.9521 1910.24 56.782C1927.65 63.2492 1940.33 78.5916 1943.4 96.904C1944.94 104.472 1946.7 111.795 1948.7 118.872L1948.7 118.872C1950.71 125.747 1953.08 133.222 1955.83 141.299L1956.72 143.889C1957.63 146.547 1958.58 149.408 1959.56 152.471C1963.65 165.183 1962.15 178.759 1959.15 191.147C1957.59 198.298 1956.16 205.81 1954.84 213.681C1953.77 221.537 1952.94 229.268 1952.33 236.874C1951.97 244.493 1951.83 251.131 1951.92 256.797C1951.98 261.284 1952.16 265.647 1952.46 269.887C1953.41 277.804 1948.75 285.771 1941.22 288.628C1932.67 291.878 1924.97 296.689 1918.13 303.08L1918.11 303.094L1918.1 303.107C1908.08 312.231 1898.16 323.276 1888.36 336.261L1886.97 338.115L1884.82 337.225C1865.56 329.235 1843.18 323.623 1817.66 320.426L1817.66 320.425C1792.33 317.458 1765.2 316.185 1736.29 316.61L1726.25 316.757L1734.56 311.127C1736.06 310.115 1740.25 307.136 1744.08 303.427C1747.98 299.407 1751.77 294.912 1755.45 289.936C1759.11 284.748 1762.17 279.467 1764.64 274.094L1764.65 274.071L1764.67 274.047C1767.32 268.528 1768.52 263.693 1768.46 259.491C1768.39 254.74 1768.19 249.383 1767.86 243.418L1767.86 243.358L1767.86 243.299C1767.77 237.418 1765.52 124.758 1765.63 116.237L1765.61 114.838C1765.43 107.91 1764.76 102.009 1763.62 97.1018C1762.43 91.9685 1760.35 87.3185 1757.39 83.1283L1757.34 83.0558L1757.29 82.9793C1754.54 78.5503 1750.63 74.1643 1745.47 69.839L1745.44 69.8159L1745.42 69.7938C1741.57 66.4135 1739.41 64.8422 1734.87 61.5483C1733.56 60.591 1732.04 59.4903 1730.23 58.1629L1723.04 52.8764L1731.97 52.7453C1740.75 52.6164 1747.87 51.4712 1754.76 50.3616C1760.83 49.3833 1766.79 48.4179 1773.34 48.3171L1793.04 47.6675C1799.33 47.4555 1805.34 47.2473 1811.09 47.0432C1822.55 46.3965 1833.29 45.6412 1843.31 44.7778ZM1892.93 102.563C1890.94 94.8776 1883.39 89.1003 1875.66 89.5364C1870.02 89.8545 1863.76 90.5359 1856.89 91.5865L1856.85 91.594L1856.8 91.5995C1850.19 92.4057 1843.47 93.5686 1836.62 95.0905L1836.58 95.0999L1836.54 95.1073C1830.72 96.2346 1825.3 97.6288 1820.26 99.2862C1819.98 109.572 1819.82 121.334 1819.79 134.575L1819.79 134.576C1819.75 148.479 1819.85 163.341 1820.08 179.165C1820.31 194.492 1820.78 210.658 1821.51 227.664C1822.44 243.757 1823.71 260.4 1825.32 277.595C1827.33 278.132 1829.75 278.732 1832.58 279.395C1836.66 280.291 1840.85 281.186 1845.17 282.079C1849.47 282.969 1853.65 283.861 1857.72 284.754C1863.16 285.548 1868.73 282.833 1872.93 278.275C1875.04 275.984 1877.38 273.794 1879.95 271.704C1883.74 268.609 1887.65 265.915 1891.69 263.627C1894.73 261.908 1897.02 258.661 1897.92 255.057C1898.93 251.056 1900.12 246.913 1900.45 242.108C1901.05 233.167 1901.88 224.222 1902.95 215.275L1902.96 215.242L1902.96 215.21C1904.27 206.093 1905.73 196.305 1907.31 189.344C1909.88 178.036 1910.49 165.952 1907.21 155.244C1904.93 147.821 1902.65 140.157 1900.37 132.255L1900.37 132.234C1898.08 124.061 1896.03 116.002 1894.22 108.057L1894.21 108.039C1893.77 106.007 1893.35 104.211 1892.93 102.563Z" fill="black" stroke="black" stroke-width="6"/>
<path d="M2166.22 25.9685C2168.15 25.8321 2169.92 25.8238 2171.52 25.9584C2173.03 25.8648 2174.47 25.895 2175.84 26.0694L2179.88 26.5856L2178.19 30.2924C2176.75 33.4334 2174.28 37.1428 2172.54 43.6336C2170.65 50.6957 2168.17 57.325 2167.36 66.9509C2166.28 84.9013 2166.21 84.824 2166.21 91.367C2166.21 96.5334 2166.94 100.812 2167.69 106.471L2167.89 107.943L2166.84 108.991L2164.33 111.491L2162.82 112.992L2160.91 112.07C2151.83 107.7 2146.22 103.099 2141.63 96.9345L2141.61 96.8991L2141.58 96.8637C2137.53 91.0769 2134.26 84.1458 2131.72 76.122C2128.85 74.3951 2125.35 73.3343 2121.12 73.0321C2116.24 72.6828 2110.02 72.7636 2102.44 73.2991C2096.25 73.7359 2090.32 74.2746 2084.63 74.9148C2080.17 75.4172 2076.41 75.797 2073.35 76.0551C2072.31 84.8847 2071.78 95.4194 2071.77 107.678C2071.76 120.301 2072.02 133.653 2072.54 147.735C2074.92 147.86 2077.3 147.925 2079.67 147.928L2087.82 147.353L2088.21 147.321C2092.15 146.949 2096.05 145.168 2099.92 141.708L2100.31 141.355C2104.83 137.139 2109.09 131.87 2113.08 125.509L2115.91 120.998L2118.3 125.758C2119.75 128.641 2121.21 131.986 2122.7 135.783C2124.12 139.209 2125.66 142.747 2127.33 146.396C2129.21 149.765 2131.19 153.008 2133.27 156.125C2135.22 159.03 2137.33 161.005 2139.56 162.214L2142.85 163.995L2140.4 166.819C2138.59 168.908 2136.76 171.6 2134.92 174.937C2133.29 178.332 2131.67 181.965 2130.07 185.836L2125.9 197.543C2124.74 201.443 2123.68 204.983 2122.71 208.163L2120.81 214.366L2117.31 208.904C2115.72 206.425 2113.88 203.714 2111.77 200.771C2109.7 197.895 2107.55 195.271 2105.31 192.894C2103.17 190.624 2100.87 188.842 2098.42 187.517L2098.28 187.44L2098.15 187.348C2096.14 185.961 2094.1 185.405 2091.96 185.556C2089.89 185.702 2086.86 186.032 2082.82 186.557C2079.84 186.944 2077.09 187.449 2074.57 188.066L2074.85 192.058C2075.92 207.122 2077.05 221.457 2078.25 235.065C2079.56 247.302 2080.96 258.096 2082.46 267.451L2138.49 269.118C2141.01 254.701 2145.93 241.604 2153.29 229.859L2153.3 229.841L2153.31 229.825C2161.15 217.668 2169.62 205.83 2178.71 194.311L2181.28 190.664L2187.78 181.407L2186.72 192.67L2186.32 196.883C2186 202.342 2185.91 207.783 2186.06 213.206L2186.06 213.212C2186.19 218.452 2186.43 223.563 2186.78 228.543C2187.66 240.899 2189.04 251.989 2190.92 261.82C2192.81 271.736 2194.74 278.936 2196.65 283.557L2198.06 286.963L2194.44 287.65C2190.51 288.395 2186.61 289.373 2182.71 290.584L2182.64 290.605L2182.58 290.622C2179.05 291.545 2175.16 293.069 2170.89 295.234C2166.66 297.374 2162.09 300.252 2157.17 303.892C2152.5 307.506 2147.28 312.125 2141.49 317.765L2140.33 318.898L2138.75 318.546C2118.34 314.008 2098.28 310.884 2078.56 309.17L2078.56 309.169C2058.85 307.694 2041.2 307.515 2025.58 308.618C2024.02 308.728 2021.43 309.326 2018.21 310.276C2015.06 311.206 2011.53 312.403 2008.22 313.596C2004.9 314.787 2001.82 315.962 1999.57 316.84C1998.44 317.279 1997.53 317.644 1996.89 317.898C1996.57 318.024 1996.33 318.124 1996.16 318.191C1996.08 318.225 1996.01 318.25 1995.97 318.267C1995.95 318.276 1995.93 318.282 1995.92 318.286C1995.92 318.288 1995.91 318.29 1995.91 318.291C1995.91 318.291 1995.91 318.292 1995.91 318.292L1986.73 322.033L1992.29 313.83C1993.07 312.688 1994.62 311.255 1996.11 309.92C1997.8 308.414 1999.6 306.873 2001.57 305.088C2003.49 303.35 2005.34 301.577 2006.83 299.896C2008.37 298.157 2009.3 296.761 2009.65 295.779L2009.67 295.733L2009.69 295.687C2012.05 289.719 2013.91 282.927 2015.26 275.295L2015.27 275.252L2015.28 275.208C2016.86 267.557 2017.84 259.706 2018.21 251.655C2018.57 243.299 2018.51 235.72 2018.03 228.912C2017.28 218.362 2015.4 208.39 2012.39 198.986L2012.38 198.952L2012.37 198.92C2009.59 189.48 2006.13 182.775 2002.15 178.513L2000.3 176.539L2002.08 174.499C2005.3 170.78 2007.88 165.93 2009.74 159.848L2009.75 159.819L2009.76 159.79C2011.88 153.33 2013.39 146.549 2014.3 139.444C2015.19 132.057 2015.61 124.583 2015.55 117.022C2015.49 109.381 2015.22 102.245 2014.75 95.6116C2014.36 90.1452 2013.91 85.4268 2013.4 81.4483C2013.01 78.4515 2012.66 76.0077 2012.35 74.1045C2006.7 72.2026 2000.9 68.5732 1994.95 63.4078L1994.93 63.3879L1994.91 63.367C1988.49 57.5632 1983.48 51.1105 1979.94 44.0032L1977.68 39.4716L1982.74 39.6664C1998.12 40.2581 2012.63 40.4305 2026.26 40.1864C2040.14 39.6858 2053.15 39.0061 2065.31 38.1475C2091.35 36.3081 2112.25 33.9914 2128.02 31.2084C2143.99 28.3927 2156.73 26.6386 2166.22 25.9685Z" fill="black" stroke="black" stroke-width="6"/>
<path fill-rule="evenodd" clip-rule="evenodd" d="M256.153 346.602C264.308 349.231 272.033 351.033 279.334 352.037C286.722 353.053 294.222 353.492 301.836 353.352C305.68 353.281 309.654 352.982 313.759 352.449L313.923 352.428L314.088 352.416C318.306 352.104 322.77 351.669 327.482 351.11L327.517 351.106L340.098 349.761L364.344 347.927L332.539 367.015L332.496 367.037C314.015 376.706 296.483 383.032 279.928 385.852C263.905 388.582 249.224 390.085 235.904 390.33C222.207 390.582 209.773 389.067 198.675 385.678C187.888 382.384 177.903 378.061 168.742 372.694C160.003 367.665 151.853 362.121 144.298 356.057C137.074 350.258 129.982 344.819 123.023 339.736C116.276 335.042 109.469 331.179 102.601 328.126L102.565 328.11L102.53 328.094C96.3992 325.272 89.5951 323.887 82.0199 324.027C81.2921 324.04 79.1405 324.518 75.1754 325.892C71.4935 327.168 66.9823 328.941 61.9418 330.96C60.7983 331.418 59.6285 331.889 58.4379 332.367C49.2785 336.051 38.8926 340.228 29.7941 343.08C23.2155 345.142 17.9295 337.425 22.3462 332.045C29.5789 323.235 39.1782 314.497 47.9372 306.523C49.9526 304.688 51.9235 302.894 53.8108 301.149C58.9704 296.378 63.5267 291.965 67.0223 287.888C70.5991 283.717 72.5777 280.444 73.2501 277.988C77.3636 262.638 79.2765 246.605 78.9689 229.867C78.8797 225.018 78.5573 220.045 77.9991 214.945L77.9978 214.934L77.9966 214.922C77.4532 209.771 76.4691 204.888 75.055 200.262L75.0069 200.105L74.9675 199.945C73.8112 195.258 72.0288 190.937 69.6261 186.958C66.5766 181.907 64.3626 178.93 60.9262 176.008C58.8014 174.202 58.2015 171.17 59.4784 168.69C65.8009 156.413 69.9248 145.441 71.9937 135.74L72.0075 135.676L72.0226 135.612C74.353 125.75 75.4273 115.549 75.2333 104.994C75.0287 93.8682 74.1604 85.801 72.7886 80.5155L72.7543 80.3832L72.726 80.2494C71.5408 74.6437 69.7232 70.7646 67.5905 68.1969C65.2315 65.3568 62.1385 62.9182 58.1861 60.9298L58.0143 60.8434L57.8484 60.7462C53.3867 58.131 47.851 54.7047 41.2574 50.482C38.9325 48.993 37.9238 46.1097 38.8133 43.4961C39.7029 40.8825 42.2611 39.2133 45.0117 39.4518C49.495 39.8405 53.725 40.1146 57.7034 40.2755C61.9193 40.4319 66.0063 40.4731 69.9652 40.4004C79.3672 40.2275 88 39.5984 95.8741 38.525C103.931 37.4266 111.495 36.2204 118.566 34.9079C125.785 33.5679 132.77 32.3521 139.521 31.2608C146.509 30.131 153.622 29.501 160.858 29.368C165.954 29.2744 171.381 29.5566 177.132 30.1995C180.275 30.5508 182.606 33.2817 182.459 36.4411C182.312 39.6004 179.738 42.1032 176.576 42.1613C172.244 42.2409 167.841 43.9256 163.269 47.8312C158.659 51.9745 154.37 57.3878 150.457 64.1854C146.775 70.7455 143.739 78.1387 141.377 86.3963C139.275 94.3197 138.31 102.047 138.448 109.593L140.122 200.658C140.265 208.416 140.635 215.8 141.229 222.813C142.054 229.557 142.98 235.691 144.003 241.222C145.253 246.483 146.582 250.96 147.975 254.686C149.392 258.479 150.623 260.313 151.356 261.019L157.836 267.265L149.578 270.844C145.747 272.505 141.16 274.784 135.793 277.71L135.748 277.735L135.702 277.759C132.374 279.5 129.667 281.971 127.561 285.299C129.202 288.511 132.483 292.84 138.001 298.35C145.094 304.952 153.27 311.574 162.547 318.211L162.587 318.239L162.626 318.269C171.912 325.144 181.409 331.303 191.116 336.75C193.585 338.101 195.941 339.336 198.187 340.458C195.585 335.837 193.361 331.659 191.521 327.93L182.694 310.034L199.927 320.094C210.964 326.537 221.098 331.897 230.336 336.189C239.601 340.493 248.204 343.959 256.153 346.602Z" fill="black"/>
<path d="M908.009 30.0786C909.945 30.0307 911.716 30.1034 913.304 30.3108C914.817 30.2864 916.258 30.3825 917.615 30.6191L921.63 31.3197L919.767 34.9451C918.189 38.0171 915.549 41.6096 913.514 48.0142C911.301 54.9782 908.528 61.484 907.276 71.0537C905.379 88.9445 906.248 84.2662 905.518 93.6042C905.19 97.8063 905.047 99.6753 905.077 101.836C905.107 104.037 905.316 106.544 905.753 112.002L905.946 114.409L903.637 115.111L900.482 116.074L899.285 116.438L898.184 115.844C889.216 111.011 884.445 106.127 880.203 99.8466L880.179 99.8101L880.155 99.7735C876.372 93.8075 873.42 86.7342 871.254 78.6028C868.463 76.7465 865.012 75.5267 860.804 75.0315C855.94 74.4593 849.728 74.2559 842.129 74.4443C835.929 74.5979 829.975 74.8648 824.268 75.2445C819.788 75.5424 816.011 75.7498 812.946 75.8679C811.508 84.641 810.497 95.1404 809.927 107.386C809.34 119.995 808.986 133.345 808.857 147.436C811.231 147.669 813.603 147.843 815.973 147.955L824.14 147.752L824.535 147.739C828.49 147.547 832.464 145.946 836.492 142.666L836.895 142.332C841.596 138.327 846.093 133.258 850.373 127.086L853.408 122.709L855.578 127.574C856.892 130.519 858.204 133.928 859.517 137.789C860.777 141.277 862.157 144.881 863.657 148.603C865.376 152.053 867.206 155.384 869.147 158.593C870.956 161.584 872.976 163.653 875.152 164.963L878.356 166.892L875.778 169.602C873.87 171.606 871.919 174.211 869.937 177.461C868.15 180.778 866.366 184.333 864.584 188.127L859.888 199.631C858.554 203.474 857.33 206.962 856.213 210.094L854.036 216.203L850.79 210.588C849.317 208.038 847.594 205.246 845.62 202.209C843.691 199.242 841.661 196.522 839.529 194.045C837.494 191.68 835.281 189.795 832.897 188.359L832.758 188.276L832.629 188.177C830.685 186.7 828.68 186.052 826.53 186.105C824.46 186.157 821.414 186.348 817.358 186.687C814.362 186.938 811.593 187.317 809.047 187.817L809.147 191.818C809.521 206.915 809.996 221.287 810.574 234.935C811.318 247.22 812.229 258.066 813.303 267.48L869.191 271.706C872.365 257.419 877.886 244.561 885.771 233.165L885.782 233.148L885.793 233.132C894.184 221.346 903.184 209.907 912.793 198.817L915.522 195.29L922.443 186.34L920.867 197.543L920.276 201.734C919.704 207.172 919.369 212.603 919.267 218.027L919.266 218.033C919.158 223.274 919.167 228.39 919.29 233.381C919.597 245.764 920.469 256.905 921.898 266.812C923.339 276.805 924.933 284.085 926.631 288.788L927.883 292.256L924.234 292.777C920.283 293.341 916.333 294.139 912.387 295.172L912.32 295.189L912.252 295.203C908.687 295.964 904.727 297.309 900.361 299.276C896.044 301.221 891.346 303.886 886.265 307.298C881.436 310.695 876.006 315.07 869.969 320.44L868.757 321.519L867.192 321.094C847.01 315.628 827.112 311.591 807.499 308.978L807.499 308.977C787.878 306.602 770.248 305.616 754.599 306.004C753.036 306.043 750.417 306.522 747.156 307.324C743.968 308.108 740.392 309.144 737.022 310.183C733.658 311.221 730.527 312.254 728.236 313.029C727.091 313.416 726.158 313.738 725.512 313.963C725.189 314.075 724.937 314.163 724.768 314.223C724.683 314.252 724.619 314.275 724.576 314.29C724.555 314.297 724.538 314.303 724.528 314.307C724.523 314.308 724.519 314.31 724.517 314.311C724.516 314.311 724.515 314.312 724.514 314.312L715.174 317.629L721.105 309.69C721.932 308.584 723.548 307.223 725.1 305.958C726.85 304.531 728.721 303.074 730.77 301.38C732.765 299.732 734.697 298.045 736.263 296.434C737.883 294.768 738.877 293.415 739.273 292.451L739.291 292.406L739.312 292.36C741.945 286.507 744.116 279.807 745.809 272.244L745.819 272.202L745.83 272.158C747.758 264.587 749.095 256.79 749.838 248.764C750.582 240.433 750.865 232.859 750.696 226.036C750.434 215.463 749.01 205.415 746.433 195.884L746.425 195.85L746.416 195.817C744.068 186.26 740.914 179.403 737.135 174.964L735.384 172.908L737.246 170.951C740.642 167.383 743.44 162.656 745.575 156.665L745.586 156.637L745.597 156.609C748.005 150.252 749.826 143.547 751.056 136.491C752.288 129.153 753.047 121.706 753.331 114.15C753.619 106.514 753.679 99.3729 753.514 92.7255C753.378 87.2472 753.142 82.513 752.807 78.515C752.555 75.5036 752.317 73.0463 752.096 71.131C746.543 68.9731 740.916 65.0824 735.208 59.6504L735.186 59.6294L735.164 59.6075C729.019 53.5165 724.314 46.8417 721.096 39.5798L719.044 34.9495L724.09 35.3754C739.434 36.6698 753.92 37.5052 767.547 37.8844C781.429 38.0185 794.461 37.9344 806.646 37.6324C832.749 36.9855 853.725 35.6261 869.612 33.5672C885.687 31.484 898.5 30.3143 908.009 30.0786Z" fill="black" stroke="black" stroke-width="6"/>
<path d="M581.23 28.6075C583.434 30.5392 588.248 33.3228 596.066 36.9583C603.739 40.5268 612.754 44.039 623.121 47.4901C633.448 50.9276 647.801 54.6637 656.007 56.4617C660.393 57.4228 663.816 58.8294 666.384 61.4791C668.918 64.0949 670.267 67.5676 671.33 71.8284C672.518 76.5906 671.928 82.2039 671.166 86.3605C670.776 88.4909 670.318 90.3467 669.958 91.6721C669.778 92.3361 669.621 92.8706 669.508 93.2436C669.452 93.4298 669.407 93.5764 669.374 93.6787C669.369 93.6942 669.363 93.7087 669.359 93.7222C668.595 96.805 668.144 100.151 668.021 103.768C667.893 107.521 667.873 111.521 667.963 115.768C668.291 120.044 668.619 124.319 668.947 128.595C669.508 132.838 670.193 136.841 670.999 140.604C672.41 147.196 668.994 154.689 662.704 157.578C661.696 158.041 660.62 158.545 659.476 159.092L659.455 159.102L659.433 159.112C654.517 161.364 648.693 164.287 641.954 167.886C646.45 172.22 651.263 176.73 656.396 181.414C658.978 183.77 661.583 186.002 664.21 188.108C671.372 193.852 674.552 203.808 673.31 212.593C672.619 218.961 672.131 226.313 671.847 234.654C671.637 240.811 671.66 247.099 671.916 253.518L671.969 254.667C672.256 260.397 672.856 266.031 673.768 271.569L673.955 272.63C674.903 277.881 676.064 282.705 677.435 287.106C679.085 291.654 681.158 295.171 683.585 297.769L686.003 300.358L683.053 302.316C673.086 308.935 665.199 316.98 659.344 326.446C653.56 336.43 648.855 346.311 645.222 356.088L641.633 365.744L639.477 355.67C638.482 351.024 636.912 345.966 634.75 340.49L634.729 340.437L634.712 340.385C632.812 334.996 630.326 329.689 627.247 324.463C624.187 319.521 620.536 314.895 616.286 310.585L616.229 310.527L616.175 310.467C612.229 306.007 607.826 302.471 602.966 299.83L599.309 297.843L602.35 295.002C604.159 293.312 605.563 291.067 606.503 288.157L606.523 288.095L606.545 288.033C607.744 284.806 608.717 280.193 609.397 274.081L609.403 274.03L609.41 273.98C610.333 267.645 611.084 259.599 611.656 249.821C612.209 240.368 612.952 228.595 613.885 214.505C613.359 214.128 612.76 213.686 612.107 213.192C610.499 211.977 608.343 210.297 605.647 208.158L605.598 208.117C600.892 204.218 595.804 199.905 590.331 195.183C582.384 199.584 574.545 203.887 566.812 208.089L566.811 208.088C559.357 212.265 552.426 216.154 546.015 219.753C546.374 237.051 547.096 253.461 548.184 268.983L548.448 271.93C549.809 286.592 551.731 300.095 554.209 312.444L555.471 318.733L549.836 315.671C543.843 312.415 538.497 310.168 533.785 308.875L533.752 308.866C529.211 307.565 524.798 306.849 520.506 306.703C516.608 306.57 512.695 306.781 508.766 307.337C504.947 307.919 500.882 308.614 496.57 309.419L496.505 309.43L496.44 309.44C492.318 310.023 487.958 310.598 483.36 311.164C478.894 311.714 474.037 311.917 468.796 311.781L467.743 311.75L463.785 311.615C462.182 311.561 460.668 311.375 459.254 311.042L451.854 309.298L458.451 305.519C463.286 302.749 467.857 299.044 472.154 294.368C476.493 289.415 480.274 283.976 483.497 278.045C486.716 272.12 489.255 265.816 491.112 259.131L491.125 259.084L491.139 259.038C493.219 252.391 494.361 245.86 494.581 239.438L498.409 105.931L498.409 105.914C498.604 100.195 498.528 93.9716 498.183 87.2395C488.749 85.176 481.194 81.0717 475.769 74.7572L475.729 74.7099L475.691 74.6607C469.993 67.4424 467.66 56.9163 468.112 43.6464L468.239 39.9376L471.839 40.839C481.785 43.3273 489.924 45.1485 496.273 46.3128C502.592 47.2312 509.044 47.8032 515.63 48.0276C519.385 48.1556 523.508 48.1774 528 48.0953C532.355 47.7812 536.986 47.0198 541.897 45.7957L541.933 45.7872C547.036 44.5805 552.557 42.6851 558.502 40.0795C564.388 37.2654 570.713 33.3963 577.48 28.4426L579.421 27.0225L581.23 28.6075ZM558.584 81.2898C553.605 80.1178 548.945 83.4822 548.676 88.183C548.555 90.2872 548.457 92.4429 548.382 94.6494L546.393 153.052C546.182 159.228 552.817 163.387 558.373 160.474C560.748 159.229 563.143 157.984 565.557 156.741C573.875 152.222 581.585 148.158 588.685 144.55C595.721 140.741 601.555 137.599 606.185 135.124C610.17 132.779 612.368 128.678 612.337 123.883L612.269 113.495C612.183 100.518 602.89 89.4379 590.142 87.2467C586.257 86.5789 582.48 85.9418 578.809 85.3353C572.014 84.2125 565.273 82.8639 558.584 81.2898Z" fill="black" stroke="black" stroke-width="6"/>
<path fill-rule="evenodd" clip-rule="evenodd" d="M490.074 237.189C492.446 248.269 492.895 267.908 492.624 279.554L496.404 147.724C496.028 158.758 494.449 169.871 491.666 181.062C490.3 195.327 480.226 208.861 471.226 221.489C478.874 223.02 487.596 225.338 490.074 237.189Z" fill="black"/>
<path d="M304.487 18.4795C310.334 16.1697 316.852 15.0778 323.312 16.3721C329.168 17.5451 335.617 19.0717 342.654 20.9473C353.715 23.5924 364.657 26.3574 375.479 29.2432C386.281 32.1238 396.124 34.765 405.008 37.166H405.007C410.45 38.6051 414.701 42.7696 417.319 47.5615C419.945 52.3659 421.162 58.209 420.13 63.5098C420.008 64.1334 419.892 64.7666 419.782 65.4092L419.781 65.416L419.779 65.4238C418.372 73.3997 417.665 81.7445 417.665 90.4619C417.665 103.645 419.312 116.837 422.612 130.042C422.998 131.557 423.403 133.039 423.826 134.486C429.113 152.554 428.903 173.684 423.15 191.622C422.834 192.608 422.525 193.612 422.222 194.635C419.323 204.417 418.231 217.892 418.231 231.484C418.231 242.663 418.299 254.327 421.457 263.352C421.747 264.18 422.054 264.988 422.376 265.774C424.246 270.338 423.67 276.349 421.779 281.212C419.927 285.977 416.278 290.915 410.824 291.782L410.825 291.783C402.019 293.211 393.089 294.997 384.036 297.142L384.035 297.141C375.203 299.289 366.611 301.558 358.261 303.943C357.419 304.208 356.589 304.475 355.772 304.742C342.907 308.949 328.879 311.76 315.062 308.724C312.478 308.155 309.801 307.533 307.033 306.856C296.213 304.211 285.392 301.446 274.572 298.561L274.564 298.559L274.556 298.557C263.998 295.677 254.28 293.038 245.402 290.639L245.366 290.629L245.33 290.618C244.421 290.348 243.539 290.089 242.685 289.842C238.254 288.561 235.062 284.519 233.179 280.498C231.263 276.407 230.29 271.489 230.989 267.433L230.995 267.394L231.004 267.354C232.369 260.529 232.105 251.788 232.105 242.462C232.105 234.205 231.516 225.575 230.331 216.573L230.325 216.531L230.321 216.488C229.373 207.245 227.955 198.868 226.075 191.35L226.042 191.219L226.021 191.085C221.78 163.915 225.778 139.153 228.375 129.966L228.384 129.933L228.395 129.9C230.242 123.897 231.18 118.254 232.136 111.561L232.143 111.509L232.152 111.457C233.309 104.982 233.545 99.4563 233.545 93.0625C233.545 82.1382 232.867 73.0867 229.666 63.7119C229.301 62.642 228.91 61.6083 228.493 60.6113C226.666 56.2353 227.254 50.3902 229.059 45.6826C230.822 41.0812 234.313 36.1793 239.572 35.3027L239.585 35.3008C248.387 33.8734 257.191 32.0891 265.996 29.9473C274.815 27.802 283.273 25.5385 291.369 23.1582C296.076 21.635 300.448 20.0753 304.487 18.4795ZM331.92 63.4082C323.436 60.9338 314.292 61.6699 306.198 65.334C302.017 67.2269 298.643 68.9543 295.336 70.5C289.122 73.4047 284.472 79.0589 283.438 85.5781C280.239 105.753 274.065 139.007 273.867 162.01C273.652 187.084 279.497 225.182 282.443 242.693C283.279 247.661 286.354 251.955 290.789 254.356C292.03 255.028 293.233 255.674 294.396 256.295C297.913 258.17 301.427 259.929 304.939 261.57C308.661 262.962 312.623 264.244 316.828 265.412C325.446 267.806 334.841 266.449 343.583 263.035C344.808 262.557 345.981 262.103 347.104 261.668C347.846 261.381 348.594 261.094 349.347 260.806C350.101 260.517 350.86 260.226 351.629 259.929C360.517 256.49 366.853 248.675 369.666 239.21C370.17 237.514 370.728 235.661 371.358 233.604C374.353 223.84 376.345 216.192 376.345 159.984C376.345 125.698 371.453 100.797 368.108 87.7783C366.562 81.7595 362.373 76.7836 356.731 73.7461C355.998 73.3513 355.278 72.965 354.573 72.5889C351.09 70.731 347.489 69.1051 343.771 67.7109L343.662 67.6699L343.557 67.6211C340.125 66.0195 336.323 64.6338 332.143 63.4727L332.12 63.4668L332.099 63.46C332.039 63.4425 331.98 63.4256 331.92 63.4082Z" fill="black" stroke="black" stroke-width="6"/>
<path d="M1191.98 63.3823L1217.15 136.779L1218.03 221.912L1194.28 287.554L1144.54 333.307L1078.2 346.959L1018.16 313.808L979.227 254.451L966.182 173.046L987.991 83.4915L1048.75 21.6265L1122.97 15.052L1191.98 63.3823ZM1103.5 83.5295C1103.23 84.0303 1102.63 85.1176 1101.69 86.7911C1100.89 88.4517 1100.21 89.5456 1099.64 90.0723C1098.73 89.8334 1097.13 89.495 1094.84 89.0561C1092.7 88.4459 1090.25 87.7823 1087.5 87.0657C1084.73 86.1907 1081.9 85.3217 1078.98 84.4596C1076.21 83.4264 1073.66 82.3738 1071.34 81.3017C1067.09 85.331 1061.59 89.7876 1054.85 94.6702C1048.25 99.5399 1039.82 104.01 1029.56 108.083C1030.55 114.046 1031.47 120.175 1032.33 126.468C1033.34 132.748 1034.25 139.753 1035.05 147.484L1050.74 163.318L1028.51 178.616C1029 181.598 1029.44 184.824 1029.82 188.293C1030.33 191.591 1030.71 195.061 1030.94 198.702C1031.48 206.933 1031.71 215.111 1031.64 223.236C1031.71 231.348 1031.73 239.704 1031.69 248.304L1033.74 248.604C1036.77 248.978 1040.5 249.69 1044.92 250.739C1049.35 251.788 1054.17 253.122 1059.39 254.739C1064.61 256.357 1069.99 258.277 1075.55 260.502C1081.11 262.727 1086.46 265.289 1091.61 268.186C1094.11 265.103 1096.85 262.08 1099.81 259.117C1102.91 255.983 1105.96 253.093 1108.94 250.446C1111.92 247.642 1114.76 245.087 1117.46 242.783C1120.17 240.479 1122.52 238.524 1124.52 236.918L1145.56 248.302L1166.27 268.926L1159.58 224.642L1141.28 213.736L1150.69 181.641C1153.09 181.433 1155.61 180.897 1158.26 180.031C1161.05 179.152 1163.62 178.133 1165.95 176.976C1168.42 175.648 1170.65 174.18 1172.65 172.574C1174.65 170.968 1176.27 169.237 1177.5 167.379C1172.96 166.818 1168.33 166.263 1163.64 165.715C1159.08 164.995 1154.67 164.263 1150.42 163.517C1146.31 162.759 1142.51 162.053 1139.01 161.401C1135.65 160.578 1132.81 159.789 1130.51 159.034L1121.03 197.104L1060.98 133.538L1057.9 117.328C1059.5 116.553 1061.52 115.263 1063.96 113.46C1066.39 111.499 1068.5 109.326 1070.3 106.942C1073.54 108.253 1076.84 109.32 1080.2 110.143C1083.7 110.795 1087.42 111.269 1091.35 111.565C1093.69 119.958 1095.8 128.133 1097.67 136.089C1099.54 144.046 1101.43 151.047 1103.32 157.091C1106.79 148.035 1109.59 140.151 1111.71 133.441C1113.98 126.718 1115.92 120.739 1117.53 115.505C1119.14 110.113 1120.63 105.367 1122.02 101.267C1122.84 98.7096 1123.76 96.2018 1124.75 93.7443C1125.7 91.4126 1124.13 88.8028 1121.65 88.6439C1119.67 88.3374 1117.62 87.9575 1115.49 87.5057C1113.35 87.0538 1111.21 86.5233 1109.07 85.9132C1106.91 85.1447 1105.06 84.3497 1103.5 83.5295ZM1106.73 219.835C1105.73 220.717 1104.38 221.948 1102.68 223.528C1101.13 225.095 1099.51 226.748 1097.82 228.487C1096.12 230.067 1094.5 231.719 1092.96 233.444C1091.4 235.011 1090.21 236.309 1089.38 237.336C1087.66 236.371 1085.56 235.359 1083.09 234.3C1080.61 233.082 1077.98 232.035 1075.22 231.16C1072.6 230.114 1069.99 229.306 1067.4 228.735C1064.95 228.15 1062.83 227.936 1061.04 228.091L1060.06 188.776L1068.84 181.569L1106.73 219.835Z" fill="black"/>
</svg>
